<svg width="247" height="230" viewBox="0 0 247 230" fill="none" xmlns="http://www.w3.org/2000/svg">
<rect width="247" height="230" fill="none"/>
<path d="M197.532 17.3054L17.5318 180.805C-15.468 225.305 3.53186 244.305 51.5318 215.305L234.532 43.3053C249.532 32.3053 260.032 -27.1946 197.532 17.3054Z" fill="#C19A6B" stroke="black"/>
<path d="M101.065 133.243C91.5651 133.243 74.4651 135.643 68.0651 149.243C73.5651 149.243 92.2651 146.943 101.065 153.743C110.898 149.318 125.065 142.223 125.065 133.243C120.898 137.077 114.665 137.243 101.065 133.243Z" fill="#9B7D52"/>
<path d="M136.032 101.805C126.532 101.805 109.432 104.205 103.032 117.805C108.532 117.805 127.232 115.505 136.032 122.305C145.865 117.88 160.032 110.785 160.032 101.805C155.865 105.639 149.632 105.805 136.032 101.805Z" fill="#9B7D52"/>
<path d="M169.032 67.3053C159.532 67.3053 142.432 69.7053 136.032 83.3053C141.532 83.3053 160.232 81.0053 169.032 87.8053C178.865 83.38 193.032 76.2846 193.032 67.3053C188.865 71.1387 182.632 71.3053 169.032 67.3053Z" fill="#9B7D52"/>
<path d="M202.032 36.8865C192.532 36.8865 175.432 39.2865 169.032 52.8865C174.532 52.8865 193.232 50.5865 202.032 57.3865C211.865 52.9611 226.032 45.8657 226.032 36.8865C221.865 40.7198 215.632 40.8865 202.032 36.8865Z" fill="#9B7D52"/>
<path d="M65.5318 166.805C56.0318 166.805 38.9318 169.205 32.5318 182.805C38.0318 182.805 56.7318 180.505 65.5318 187.305C75.3652 182.88 89.5318 175.785 89.5318 166.805C85.3652 170.639 79.1318 170.805 65.5318 166.805Z" fill="#9B7D52"/>
<path d="M101.065 133.243C91.5651 133.243 74.4651 135.643 68.0651 149.243C73.5651 149.243 92.2651 146.943 101.065 153.743C110.898 149.318 125.065 142.223 125.065 133.243C120.898 137.077 114.665 137.243 101.065 133.243Z" stroke="black"/>
<path d="M136.032 101.805C126.532 101.805 109.432 104.205 103.032 117.805C108.532 117.805 127.232 115.505 136.032 122.305C145.865 117.88 160.032 110.785 160.032 101.805C155.865 105.639 149.632 105.805 136.032 101.805Z" stroke="black"/>
<path d="M169.032 67.3053C159.532 67.3053 142.432 69.7053 136.032 83.3053C141.532 83.3053 160.232 81.0053 169.032 87.8053C178.865 83.38 193.032 76.2846 193.032 67.3053C188.865 71.1387 182.632 71.3053 169.032 67.3053Z" stroke="black"/>
<path d="M202.032 36.8865C192.532 36.8865 175.432 39.2865 169.032 52.8865C174.532 52.8865 193.232 50.5865 202.032 57.3865C211.865 52.9611 226.032 45.8657 226.032 36.8865C221.865 40.7198 215.632 40.8865 202.032 36.8865Z" stroke="black"/>
<path d="M65.5318 166.805C56.0318 166.805 38.9318 169.205 32.5318 182.805C38.0318 182.805 56.7318 180.505 65.5318 187.305C75.3652 182.88 89.5318 175.785 89.5318 166.805C85.3652 170.639 79.1318 170.805 65.5318 166.805Z" stroke="black"/>
</svg>
