<svg width="2049" height="1911" viewBox="0 0 2049 1911" fill="none">
<path d="M1868 1526C1502 1872.5 924.5 1787.5 785.499 1751C646.498 1714.5 387 1416 470.499 1107C663.499 1166 910.498 1158.5 1065 1023C1285 1081.67 1695 1075.5 1797 1059C1925 1267.5 1928.27 1468.94 1868 1526Z" fill="white" stroke="black"/>
<path d="M665 475.999C639 526.499 579.5 686.5 870.5 686.5C1079 629 1322.5 530 1559.5 230.5C1691.5 -28.5004 1343.57 -6.28578 1246 19.9997C1027 79 712 302 665 475.999Z" fill="#952F3D" stroke="black" stroke-width="9"/>
<path d="M872.957 687C850.756 775.5 905.531 938.5 1068 1015.5C1218 1086.59 1561.06 1072.5 1799.84 1053.5C1849.28 1053.5 1989.55 899 1971.39 687C1982.49 448.5 1759.98 230 1561.68 230C1349.77 490.5 1133.82 609.5 872.957 687Z" fill="#FFD500" fill-opacity="0.61" stroke="black" stroke-width="9"/>
<path d="M2002 938C1874 911.5 1697.5 836.5 1666.5 759.5C1735 733 1900.5 717.5 2002 711.5C2061.5 751.5 2050.5 777 2013 830C2029.17 859.5 2075 914 2002 938Z" fill="#B93E5F"/>
<path d="M1048 291C988 238.2 1001 210.333 1015 203C1026 183 1082 230.167 1099 273.5M1666.5 759.5C1697.5 836.5 1874 911.5 2002 938C2075 914 2029.17 859.5 2013 830M1666.5 759.5C1768 797 1935 830 2013 830M1666.5 759.5C1735 733 1900.5 717.5 2002 711.5C2061.5 751.5 2050.5 777 2013 830M1746 423.5C1746 337.5 1825.5 377.5 1847.5 408.5" stroke="black" stroke-width="9"/>
<path d="M793 1755C1396 1877 1788.5 1641 1877.5 1510" stroke="black" stroke-width="9"/>
<path d="M795 1754.5C430 1710.5 194 1426 113 1298.5L258 1372C118.8 1271.6 45.3332 1104.83 25.9999 1034L124.5 1107.5C39.5 995.5 4.50005 927.5 4.5 833L85.9999 902.5C29.5983 808.027 58.6162 734.026 52.6087 704.585C52.0711 702.898 51.5348 701.203 50.9999 699.5C51.6996 701.009 52.2254 702.706 52.6087 704.585C145.532 996.21 278.102 1057.52 468.5 1107.5C747.9 1180.84 821.684 1126.73 987.432 1086.26C965.699 1073.14 953.151 1061.95 951 1055L1057 1015.5C1167.5 1086 1668.5 1086 1797 1055L1706 1174.5C1357.18 1239.29 1083.17 1144.06 987.432 1086.26C821.684 1126.73 747.9 1180.84 468.5 1107.5C395 1333.5 551.5 1658 795 1754.5Z" fill="#DEB8F4"/>
<path d="M468.5 1107.5C277 1057.23 144 995.5 50.9999 699.5C62.6666 724.667 25.9999 802 85.9999 902.5L4.5 833C4.50005 927.5 39.5 995.5 124.5 1107.5L25.9999 1034C45.3332 1104.83 118.8 1271.6 258 1372L113 1298.5C194 1426 430 1710.5 795 1754.5C551.5 1658 395 1333.5 468.5 1107.5ZM468.5 1107.5C748.5 1181 822 1126.5 988.5 1086M1057 1015.5L951 1055C962.63 1092.57 1278 1254 1706 1174.5L1797 1055C1668.5 1086 1167.5 1086 1057 1015.5Z" stroke="#020202" stroke-width="9"/>
<path d="M1162.5 1811.5C1162.5 1837.29 1148.91 1860.94 1126.33 1878.29C1103.75 1895.64 1072.36 1906.5 1037.5 1906.5C1002.64 1906.5 971.254 1895.64 948.671 1878.29C926.093 1860.94 912.5 1837.29 912.5 1811.5C912.5 1785.71 926.093 1762.06 948.671 1744.71C971.254 1727.36 1002.64 1716.5 1037.5 1716.5C1072.36 1716.5 1103.75 1727.36 1126.33 1744.71C1148.91 1762.06 1162.5 1785.71 1162.5 1811.5Z" fill="#8082D0" stroke="black" stroke-width="9"/>
<path d="M1635.5 1772.5C1635.5 1798.29 1621.91 1821.94 1599.33 1839.29C1576.75 1856.64 1545.36 1867.5 1510.5 1867.5C1475.64 1867.5 1444.25 1856.64 1421.67 1839.29C1399.09 1821.94 1385.5 1798.29 1385.5 1772.5C1385.5 1746.71 1399.09 1723.06 1421.67 1705.71C1444.25 1688.36 1475.64 1677.5 1510.5 1677.5C1545.36 1677.5 1576.75 1688.36 1599.33 1705.71C1621.91 1723.06 1635.5 1746.71 1635.5 1772.5Z" fill="#8082D0" stroke="black" stroke-width="9"/>
<path d="M1873.5 1515C1987 1388 1791 1047.5 1791 1047.5" stroke="black" stroke-width="9"/>
<path d="M1948.5 1223C1948.5 1263.86 1921.12 1295.5 1889 1295.5C1856.88 1295.5 1829.5 1263.86 1829.5 1223C1829.5 1182.14 1856.88 1150.5 1889 1150.5C1921.12 1150.5 1948.5 1182.14 1948.5 1223Z" fill="#D0C6C6" stroke="black" stroke-width="9"/>
<path d="M1035 1249.5L664 1362C664 1424 904.5 1557.9 1035 1592C1178.5 1629.5 1408 1536.5 1328.5 1349" stroke="black" stroke-width="9"/>
<path d="M1696.3 655.647C1695.18 660.794 1691.73 665.522 1685.76 669.595C1679.77 673.685 1671.45 676.947 1661.24 679.087C1640.81 683.363 1613.64 682.978 1584.65 676.701C1555.65 670.424 1530.75 659.536 1513.93 647.195C1505.51 641.022 1499.29 634.613 1495.53 628.409C1491.78 622.233 1490.59 616.5 1491.7 611.353C1492.82 606.206 1496.27 601.478 1502.24 597.405C1508.23 593.314 1516.55 590.053 1526.76 587.913C1547.19 583.637 1574.36 584.022 1603.35 590.299C1632.35 596.576 1657.25 607.464 1674.07 619.804C1682.49 625.978 1688.71 632.387 1692.47 638.591C1696.22 644.767 1697.41 650.5 1696.3 655.647Z" fill="#D59A9A" stroke="black" stroke-width="9"/>
<path d="M1871 541C1871 572.37 1864.3 600.621 1853.62 620.921C1842.87 641.359 1828.54 653 1813.5 653C1798.46 653 1784.13 641.359 1773.38 620.921C1762.7 600.621 1756 572.37 1756 541C1756 509.63 1762.7 481.379 1773.38 461.079C1784.13 440.641 1798.46 429 1813.5 429C1828.54 429 1842.87 440.641 1853.62 461.079C1864.3 481.379 1871 509.63 1871 541Z" fill="#FFFBFB" stroke="black" stroke-width="6"/>
<path d="M1865 587.5C1865 605.875 1859.78 622.382 1851.48 634.215C1843.19 646.058 1832.01 653 1820 653C1807.99 653 1796.81 646.058 1788.52 634.215C1780.22 622.382 1775 605.875 1775 587.5C1775 569.125 1780.22 552.618 1788.52 540.785C1796.81 528.942 1807.99 522 1820 522C1832.01 522 1843.19 528.942 1851.48 540.785C1859.78 552.618 1865 569.125 1865 587.5Z" fill="black" stroke="black" stroke-width="6"/>
<path d="M1969.5 1415C1969.5 1466.06 1937.2 1505.5 1899.5 1505.5C1861.8 1505.5 1829.5 1466.06 1829.5 1415C1829.5 1363.94 1861.8 1324.5 1899.5 1324.5C1937.2 1324.5 1969.5 1363.94 1969.5 1415Z" fill="#D0C6C6" stroke="black" stroke-width="9"/>
</svg>